# xmcd
#
# Track frame offsets:
#	150
#	13805
#	27487
#	43937
#	60870
#	74347
#	90350
#	103112
#	114305
#	131275
#
# Disc length: 1972 seconds
#
# Revision: 1
# Processed by: cddbd v1.5.2PL0 Copyright (c) Steve Scherf et al.
# Submitted via: audiograbber 1.83.01
#
DISCID=7c07b20a
DTITLE=Candy Hemphill - Hymns
DYEAR=1994
DGENRE=Gospel
TTITLE0=Love Lifted Me
TTITLE1=Paid In Full
TTITLE2=Because He Lives
TTITLE3=It Is No Secret
TTITLE4=In The Garden
TTITLE5=Where Could I Go
TTITLE6=Room At The Cross
TTITLE7=What A Friend We Have In Jesus
TTITLE8=It Is Well With My Soul
TTITLE9=The Old Rugged Cross
EXTD=
EXTT0=
EXTT1=
EXTT2=
EXTT3=
EXTT4=
EXTT5=
EXTT6=
EXTT7=
EXTT8=
EXTT9=
PLAYORDER=
